<?xml version="1.0" encoding="UTF-8"?>
<svg id="uuid-4775e2a7-34f8-45c4-b365-b4c307ee515f" data-name="Layer 2" xmlns="http://www.w3.org/2000/svg" viewBox="0 0 1016.04 214.36">
  <defs>
    <style>
      .uuid-7fb84860-e295-41ad-b898-cbee8dc3cc3a {
        fill: none;
        stroke: #fff;
        stroke-miterlimit: 10;
        stroke-width: 30px;
      }
    </style>
  </defs>
  <g id="uuid-a8b2f900-ea79-4d37-8a7c-8cbe25db12a9" data-name="Layer 1">
    <g>
      <path class="uuid-7fb84860-e295-41ad-b898-cbee8dc3cc3a" d="M127.36,131.74c-11.91,11.9-28.37,19.27-46.54,19.27-36.35,0-65.82-29.47-65.82-65.82S44.47,19.38,80.82,19.38c18.17,0,34.63,7.37,46.54,19.27"/>
      <path class="uuid-7fb84860-e295-41ad-b898-cbee8dc3cc3a" d="M649.18,38.66c-11.91-11.9-28.38-19.27-46.54-19.27-36.35,0-65.82,29.47-65.82,65.81s29.47,65.82,65.82,65.82c4.25,0,11.19-.59,18.69-2.69,17.67-4.95,28.85-15.35,33.59-19.7,18.75-17.2,46.79-40.51,60.39-49.53,15.72-10.42,40.95-20.83,81.79-18.49"/>
      <circle class="uuid-7fb84860-e295-41ad-b898-cbee8dc3cc3a" cx="421.98" cy="85.2" r="65.82"/>
      <line class="uuid-7fb84860-e295-41ad-b898-cbee8dc3cc3a" x1="694.05" y1="4.42" x2="694.05" y2="165.98"/>
      <line class="uuid-7fb84860-e295-41ad-b898-cbee8dc3cc3a" x1="803.07" y1="4.42" x2="803.07" y2="165.98"/>
      <path class="uuid-7fb84860-e295-41ad-b898-cbee8dc3cc3a" d="M848.18,54.32c10.81-12.38,23.29-23.85,38.5-30.08,15.21-6.23,33.58-6.51,47.32,2.5,12.95,8.49,19.91,23.59,24.35,38.43,4.31,14.42,6.86,29.69,4.45,44.55s-10.32,29.31-23.21,37.09c-11.11,6.7-25.52,7.8-37.33,2.43-11.81-5.37-20.54-17.21-21.71-30.13-1.55-17.02,9.94-33.48,25.22-41.13,15.28-7.64,33.49-7.57,50.07-3.46,18.61,4.62,35.98,14.16,49.86,27.39"/>
      <path class="uuid-7fb84860-e295-41ad-b898-cbee8dc3cc3a" d="M168.66,11.07c27.43,25.07,40.77,50.39,47.35,65.98,3.36,7.97,18.79,44.52,6.29,62.93-3.56,5.24-8.85,8.22-9.07,8.35-7.74,4.27-18.3,4.73-26.2-.12-1.29-.79-5.02-3.28-8.11-8.53-8.1-13.79-7.72-42.63,5.72-69.14,1.46-2.88,23.96-45.83,62.41-50.74,1.78-.23,3.84-.41,6.69-.41,29.6,0,53.6,24,53.6,53.6,0,19.1-9.99,35.88-25.04,45.37,27.59,48.15,79.37,80.67,138.77,81,11.55-.08,22.7-1.83,33.23-5.04,29.35-8.95,48.33-28.26,57.59-39.45"/>
    </g>
  </g>
</svg>